<?xml version="1.0" encoding="UTF-8" standalone="no"?>
<!-- Created with Inkscape (http://www.inkscape.org/) -->

<svg
   width="1000"
   height="1000"
   viewBox="0 0 264.58333 264.58333"
   version="1.1"
   id="svg1"
   xml:space="preserve"
   inkscape:version="1.4.2 (f4327f4, 2025-05-13)"
   sodipodi:docname="okkhor.svg"
   xmlns:inkscape="http://www.inkscape.org/namespaces/inkscape"
   xmlns:sodipodi="http://sodipodi.sourceforge.net/DTD/sodipodi-0.dtd"
   xmlns="http://www.w3.org/2000/svg"
   xmlns:svg="http://www.w3.org/2000/svg"><sodipodi:namedview
     id="namedview1"
     pagecolor="#ffffff"
     bordercolor="#000000"
     borderopacity="0.25"
     inkscape:showpageshadow="2"
     inkscape:pageopacity="0.0"
     inkscape:pagecheckerboard="0"
     inkscape:deskcolor="#d1d1d1"
     inkscape:document-units="mm"
     inkscape:zoom="0.32738847"
     inkscape:cx="53.453318"
     inkscape:cy="490.24329"
     inkscape:window-width="1920"
     inkscape:window-height="974"
     inkscape:window-x="-11"
     inkscape:window-y="-11"
     inkscape:window-maximized="1"
     inkscape:current-layer="layer1" /><defs
     id="defs1" /><g
     inkscape:label="Layer 1"
     inkscape:groupmode="layer"
     id="layer1"><path
       style="fill:#000000;stroke-width:9.00218"
       d="m 3.6465237,260.80314 c -6.1353842,-6.02454 -4.8659002,-12.53622 6.3899323,-32.77671 10.179761,-18.30518 10.374352,-19.41819 10.415779,-59.56411 0.0636,-59.51728 22.353221,-100.823043 43.30768,-80.24715 11.275379,11.071652 14.93014,8.052344 17.03421,-14.0725 C 86.005845,19.339956 156.5168,-12.473523 234.844,4.6378447 290.97816,16.900915 261.01633,123.49827 200.03972,128.46351 c -22.71685,1.84983 -24.55419,5.21776 -10.13424,18.57637 31.501,29.18247 -24.10142,68.26879 -103.138126,72.50211 -37.79754,2.0245 -41.381422,3.84222 -54.434146,27.60835 -9.043667,16.46659 -20.344014,21.84474 -28.6866843,13.6528 z"
       id="path1" /></g></svg>
